<svg width="251" height="50" viewBox="0 0 251 50" fill="none" xmlns="http://www.w3.org/2000/svg">
<path d="M57.88 20.06C59.4 20.06 60.7133 20.3467 61.82 20.92C62.94 21.48 63.7933 22.2867 64.38 23.34C64.98 24.3933 65.28 25.6333 65.28 27.06C65.28 28.4867 64.98 29.7267 64.38 30.78C63.7933 31.82 62.94 32.62 61.82 33.18C60.7133 33.7267 59.4 34 57.88 34H53.54V20.06H57.88ZM57.88 32.5C59.68 32.5 61.0533 32.0267 62 31.08C62.9467 30.12 63.42 28.78 63.42 27.06C63.42 25.3267 62.94 23.9733 61.98 23C61.0333 22.0267 59.6667 21.54 57.88 21.54H55.36V32.5H57.88ZM77.6806 28.1C77.6806 28.4467 77.6606 28.8133 77.6206 29.2H68.8606C68.9273 30.28 69.294 31.1267 69.9606 31.74C70.6406 32.34 71.4606 32.64 72.4206 32.64C73.2073 32.64 73.8606 32.46 74.3806 32.1C74.914 31.7267 75.2873 31.2333 75.5006 30.62H77.4606C77.1673 31.6733 76.5806 32.5333 75.7006 33.2C74.8206 33.8533 73.7273 34.18 72.4206 34.18C71.3806 34.18 70.4473 33.9467 69.6206 33.48C68.8073 33.0133 68.1673 32.3533 67.7006 31.5C67.234 30.6333 67.0006 29.6333 67.0006 28.5C67.0006 27.3667 67.2273 26.3733 67.6806 25.52C68.134 24.6667 68.7673 24.0133 69.5806 23.56C70.4073 23.0933 71.354 22.86 72.4206 22.86C73.4606 22.86 74.3806 23.0867 75.1806 23.54C75.9806 23.9933 76.594 24.62 77.0206 25.42C77.4606 26.2067 77.6806 27.1 77.6806 28.1ZM75.8006 27.72C75.8006 27.0267 75.6473 26.4333 75.3406 25.94C75.034 25.4333 74.614 25.0533 74.0806 24.8C73.5606 24.5333 72.9806 24.4 72.3406 24.4C71.4206 24.4 70.634 24.6933 69.9806 25.28C69.3406 25.8667 68.974 26.68 68.8806 27.72H75.8006ZM79.403 28.48C79.403 27.36 79.6296 26.38 80.083 25.54C80.5363 24.6867 81.1563 24.0267 81.943 23.56C82.743 23.0933 83.6296 22.86 84.603 22.86C85.563 22.86 86.3963 23.0667 87.103 23.48C87.8096 23.8933 88.3363 24.4133 88.683 25.04V23.04H90.523V34H88.683V31.96C88.323 32.6 87.783 33.1333 87.063 33.56C86.3563 33.9733 85.5296 34.18 84.583 34.18C83.6096 34.18 82.7296 33.94 81.943 33.46C81.1563 32.98 80.5363 32.3067 80.083 31.44C79.6296 30.5733 79.403 29.5867 79.403 28.48ZM88.683 28.5C88.683 27.6733 88.5163 26.9533 88.183 26.34C87.8496 25.7267 87.3963 25.26 86.823 24.94C86.263 24.6067 85.643 24.44 84.963 24.44C84.283 24.44 83.663 24.6 83.103 24.92C82.543 25.24 82.0963 25.7067 81.763 26.32C81.4296 26.9333 81.263 27.6533 81.263 28.48C81.263 29.32 81.4296 30.0533 81.763 30.68C82.0963 31.2933 82.543 31.7667 83.103 32.1C83.663 32.42 84.283 32.58 84.963 32.58C85.643 32.58 86.263 32.42 86.823 32.1C87.3963 31.7667 87.8496 31.2933 88.183 30.68C88.5163 30.0533 88.683 29.3267 88.683 28.5ZM92.9186 28.48C92.9186 27.36 93.1453 26.38 93.5986 25.54C94.0519 24.6867 94.6719 24.0267 95.4586 23.56C96.2586 23.0933 97.1519 22.86 98.1386 22.86C98.9919 22.86 99.7853 23.06 100.519 23.46C101.252 23.8467 101.812 24.36 102.199 25V19.2H104.039V34H102.199V31.94C101.839 32.5933 101.305 33.1333 100.599 33.56C99.8919 33.9733 99.0653 34.18 98.1186 34.18C97.1453 34.18 96.2586 33.94 95.4586 33.46C94.6719 32.98 94.0519 32.3067 93.5986 31.44C93.1453 30.5733 92.9186 29.5867 92.9186 28.48ZM102.199 28.5C102.199 27.6733 102.032 26.9533 101.699 26.34C101.365 25.7267 100.912 25.26 100.339 24.94C99.7786 24.6067 99.1586 24.44 98.4786 24.44C97.7986 24.44 97.1786 24.6 96.6186 24.92C96.0586 25.24 95.6119 25.7067 95.2786 26.32C94.9453 26.9333 94.7786 27.6533 94.7786 28.48C94.7786 29.32 94.9453 30.0533 95.2786 30.68C95.6119 31.2933 96.0586 31.7667 96.6186 32.1C97.1786 32.42 97.7986 32.58 98.4786 32.58C99.1586 32.58 99.7786 32.42 100.339 32.1C100.912 31.7667 101.365 31.2933 101.699 30.68C102.032 30.0533 102.199 29.3267 102.199 28.5ZM111.766 28.48C111.766 27.36 111.993 26.38 112.446 25.54C112.9 24.6867 113.52 24.0267 114.306 23.56C115.106 23.0933 115.993 22.86 116.966 22.86C117.926 22.86 118.76 23.0667 119.466 23.48C120.173 23.8933 120.7 24.4133 121.046 25.04V23.04H122.886V34H121.046V31.96C120.686 32.6 120.146 33.1333 119.426 33.56C118.72 33.9733 117.893 34.18 116.946 34.18C115.973 34.18 115.093 33.94 114.306 33.46C113.52 32.98 112.9 32.3067 112.446 31.44C111.993 30.5733 111.766 29.5867 111.766 28.48ZM121.046 28.5C121.046 27.6733 120.88 26.9533 120.546 26.34C120.213 25.7267 119.76 25.26 119.186 24.94C118.626 24.6067 118.006 24.44 117.326 24.44C116.646 24.44 116.026 24.6 115.466 24.92C114.906 25.24 114.46 25.7067 114.126 26.32C113.793 26.9333 113.626 27.6533 113.626 28.48C113.626 29.32 113.793 30.0533 114.126 30.68C114.46 31.2933 114.906 31.7667 115.466 32.1C116.026 32.42 116.646 32.58 117.326 32.58C118.006 32.58 118.626 32.42 119.186 32.1C119.76 31.7667 120.213 31.2933 120.546 30.68C120.88 30.0533 121.046 29.3267 121.046 28.5ZM131.302 22.84C132.635 22.84 133.715 23.2467 134.542 24.06C135.369 24.86 135.782 26.02 135.782 27.54V34H133.982V27.8C133.982 26.7067 133.709 25.8733 133.162 25.3C132.615 24.7133 131.869 24.42 130.922 24.42C129.962 24.42 129.195 24.72 128.622 25.32C128.062 25.92 127.782 26.7933 127.782 27.94V34H125.962V23.04H127.782V24.6C128.142 24.04 128.629 23.6067 129.242 23.3C129.869 22.9933 130.555 22.84 131.302 22.84ZM138.075 28.48C138.075 27.36 138.302 26.38 138.755 25.54C139.208 24.6867 139.828 24.0267 140.615 23.56C141.415 23.0933 142.308 22.86 143.295 22.86C144.148 22.86 144.942 23.06 145.675 23.46C146.408 23.8467 146.968 24.36 147.355 25V19.2H149.195V34H147.355V31.94C146.995 32.5933 146.462 33.1333 145.755 33.56C145.048 33.9733 144.222 34.18 143.275 34.18C142.302 34.18 141.415 33.94 140.615 33.46C139.828 32.98 139.208 32.3067 138.755 31.44C138.302 30.5733 138.075 29.5867 138.075 28.48ZM147.355 28.5C147.355 27.6733 147.188 26.9533 146.855 26.34C146.522 25.7267 146.068 25.26 145.495 24.94C144.935 24.6067 144.315 24.44 143.635 24.44C142.955 24.44 142.335 24.6 141.775 24.92C141.215 25.24 140.768 25.7067 140.435 26.32C140.102 26.9333 139.935 27.6533 139.935 28.48C139.935 29.32 140.102 30.0533 140.435 30.68C140.768 31.2933 141.215 31.7667 141.775 32.1C142.335 32.42 142.955 32.58 143.635 32.58C144.315 32.58 144.935 32.42 145.495 32.1C146.068 31.7667 146.522 31.2933 146.855 30.68C147.188 30.0533 147.355 29.3267 147.355 28.5ZM158.543 21.26C158.196 21.26 157.903 21.14 157.663 20.9C157.423 20.66 157.303 20.3667 157.303 20.02C157.303 19.6733 157.423 19.38 157.663 19.14C157.903 18.9 158.196 18.78 158.543 18.78C158.876 18.78 159.156 18.9 159.383 19.14C159.623 19.38 159.743 19.6733 159.743 20.02C159.743 20.3667 159.623 20.66 159.383 20.9C159.156 21.14 158.876 21.26 158.543 21.26ZM159.423 23.04V34H157.603V23.04H159.423ZM167.864 22.84C169.198 22.84 170.278 23.2467 171.104 24.06C171.931 24.86 172.344 26.02 172.344 27.54V34H170.544V27.8C170.544 26.7067 170.271 25.8733 169.724 25.3C169.178 24.7133 168.431 24.42 167.484 24.42C166.524 24.42 165.758 24.72 165.184 25.32C164.624 25.92 164.344 26.7933 164.344 27.94V34H162.524V23.04H164.344V24.6C164.704 24.04 165.191 23.6067 165.804 23.3C166.431 22.9933 167.118 22.84 167.864 22.84ZM176.297 21.26C175.951 21.26 175.657 21.14 175.417 20.9C175.191 20.66 175.077 20.3667 175.077 20.02C175.077 19.6733 175.191 19.38 175.417 19.14C175.657 18.9 175.951 18.78 176.297 18.78C176.644 18.78 176.931 18.9 177.157 19.14C177.397 19.38 177.517 19.6733 177.517 20.02C177.517 20.3667 177.397 20.66 177.157 20.9C176.931 21.14 176.644 21.26 176.297 21.26ZM177.197 36.38C177.197 37.3533 176.951 38.0667 176.457 38.52C175.964 38.9733 175.244 39.2 174.297 39.2H173.237V37.66H173.997C174.504 37.66 174.857 37.56 175.057 37.36C175.271 37.16 175.377 36.82 175.377 36.34V23.04H177.197V36.38ZM189.998 23.04V34H188.178V32.38C187.832 32.94 187.345 33.38 186.718 33.7C186.105 34.0067 185.425 34.16 184.678 34.16C183.825 34.16 183.058 33.9867 182.378 33.64C181.698 33.28 181.158 32.7467 180.758 32.04C180.372 31.3333 180.178 30.4733 180.178 29.46V23.04H181.978V29.22C181.978 30.3 182.252 31.1333 182.798 31.72C183.345 32.2933 184.092 32.58 185.038 32.58C186.012 32.58 186.778 32.28 187.338 31.68C187.898 31.08 188.178 30.2067 188.178 29.06V23.04H189.998ZM194.891 24.82C195.211 24.1933 195.665 23.7067 196.251 23.36C196.851 23.0133 197.578 22.84 198.431 22.84V24.72H197.951C195.911 24.72 194.891 25.8267 194.891 28.04V34H193.071V23.04H194.891V24.82ZM210.532 28.1C210.532 28.4467 210.512 28.8133 210.472 29.2H201.712C201.779 30.28 202.146 31.1267 202.812 31.74C203.492 32.34 204.312 32.64 205.272 32.64C206.059 32.64 206.712 32.46 207.232 32.1C207.766 31.7267 208.139 31.2333 208.352 30.62H210.312C210.019 31.6733 209.432 32.5333 208.552 33.2C207.672 33.8533 206.579 34.18 205.272 34.18C204.232 34.18 203.299 33.9467 202.472 33.48C201.659 33.0133 201.019 32.3533 200.552 31.5C200.086 30.6333 199.852 29.6333 199.852 28.5C199.852 27.3667 200.079 26.3733 200.532 25.52C200.986 24.6667 201.619 24.0133 202.432 23.56C203.259 23.0933 204.206 22.86 205.272 22.86C206.312 22.86 207.232 23.0867 208.032 23.54C208.832 23.9933 209.446 24.62 209.872 25.42C210.312 26.2067 210.532 27.1 210.532 28.1ZM208.652 27.72C208.652 27.0267 208.499 26.4333 208.192 25.94C207.886 25.4333 207.466 25.0533 206.932 24.8C206.412 24.5333 205.832 24.4 205.192 24.4C204.272 24.4 203.486 24.6933 202.832 25.28C202.192 25.8667 201.826 26.68 201.732 27.72H208.652ZM212.255 28.48C212.255 27.36 212.481 26.38 212.935 25.54C213.388 24.6867 214.008 24.0267 214.795 23.56C215.595 23.0933 216.488 22.86 217.475 22.86C218.328 22.86 219.121 23.06 219.855 23.46C220.588 23.8467 221.148 24.36 221.535 25V19.2H223.375V34H221.535V31.94C221.175 32.5933 220.641 33.1333 219.935 33.56C219.228 33.9733 218.401 34.18 217.455 34.18C216.481 34.18 215.595 33.94 214.795 33.46C214.008 32.98 213.388 32.3067 212.935 31.44C212.481 30.5733 212.255 29.5867 212.255 28.48ZM221.535 28.5C221.535 27.6733 221.368 26.9533 221.035 26.34C220.701 25.7267 220.248 25.26 219.675 24.94C219.115 24.6067 218.495 24.44 217.815 24.44C217.135 24.44 216.515 24.6 215.955 24.92C215.395 25.24 214.948 25.7067 214.615 26.32C214.281 26.9333 214.115 27.6533 214.115 28.48C214.115 29.32 214.281 30.0533 214.615 30.68C214.948 31.2933 215.395 31.7667 215.955 32.1C216.515 32.42 217.135 32.58 217.815 32.58C218.495 32.58 219.115 32.42 219.675 32.1C220.248 31.7667 220.701 31.2933 221.035 30.68C221.368 30.0533 221.535 29.3267 221.535 28.5Z" fill="white"/>
<path d="M35 26.0021H34C34 22.1321 30.87 19.0021 27 19.0021H26V17.7321C26.3041 17.5565 26.5566 17.3039 26.7322 16.9998C26.9077 16.6956 27.0001 16.3506 27 15.9995C26.9999 15.6483 26.9074 15.3034 26.7317 14.9993C26.556 14.6953 26.3033 14.4429 25.9991 14.2674C25.6949 14.092 25.3499 13.9998 24.9987 14C24.6476 14.0002 24.3026 14.0929 23.9987 14.2687C23.6947 14.4445 23.4424 14.6973 23.2671 15.0016C23.0917 15.3058 22.9996 15.6509 23 16.0021C23 16.7421 23.4 17.3921 24 17.7321V19.0021H23C19.13 19.0021 16 22.1321 16 26.0021H15C14.45 26.0021 14 26.4521 14 27.0021V30.0021C14 30.5521 14.45 31.0021 15 31.0021H16V32.0021C16 32.5325 16.2107 33.0412 16.5858 33.4163C16.9609 33.7913 17.4696 34.0021 18 34.0021H32C33.11 34.0021 34 33.1121 34 32.0021V31.0021H35C35.55 31.0021 36 30.5521 36 30.0021V27.0021C36 26.4521 35.55 26.0021 35 26.0021ZM22.86 28.6821L21.68 29.8621L20.5 28.6821L19.32 29.8621L18.14 28.6821L19.32 27.5021L18.14 26.3221L19.32 25.1421L20.5 26.3221L21.68 25.1421L22.86 26.3221L21.68 27.5021L22.86 28.6821ZM31.86 28.6821L30.68 29.8621L29.5 28.6821L28.32 29.8621L27.14 28.6821L28.32 27.5021L27.14 26.3221L28.32 25.1421L29.5 26.3221L30.68 25.1421L31.86 26.3221L30.68 27.5021L31.86 28.6821Z" fill="white"/>
</svg>
